<svg xmlns="http://www.w3.org/2000/svg" xmlns:xlink="http://www.w3.org/1999/xlink" zoomAndPan="magnify" preserveAspectRatio="xMidYMid meet" version="1.0" viewBox="306.49 293.1 283.71 51.56"><defs><g/></defs><g fill="#000000" fill-opacity="1"><g transform="translate(305.147508, 319.538061)"><g><path d="M 14.328125 -25.984375 C 16.628906 -25.984375 18.628906 -25.597656 20.328125 -24.828125 C 22.023438 -24.066406 23.328125 -22.976562 24.234375 -21.5625 C 25.148438 -20.15625 25.609375 -18.488281 25.609375 -16.5625 C 25.609375 -14.65625 25.148438 -12.988281 24.234375 -11.5625 C 23.328125 -10.144531 22.023438 -9.054688 20.328125 -8.296875 C 18.628906 -7.546875 16.628906 -7.171875 14.328125 -7.171875 L 9.09375 -7.171875 L 9.09375 0 L 3.078125 0 L 3.078125 -25.984375 Z M 14 -12.0625 C 15.800781 -12.0625 17.171875 -12.453125 18.109375 -13.234375 C 19.054688 -14.015625 19.53125 -15.125 19.53125 -16.5625 C 19.53125 -18.019531 19.054688 -19.140625 18.109375 -19.921875 C 17.171875 -20.703125 15.800781 -21.09375 14 -21.09375 L 9.09375 -21.09375 L 9.09375 -12.0625 Z M 14 -12.0625 "/></g></g></g><g fill="#000000" fill-opacity="1"><g transform="translate(331.943309, 319.538061)"><g><path d="M 3.078125 -25.984375 L 9.09375 -25.984375 L 9.09375 -4.90625 L 22.125 -4.90625 L 22.125 0 L 3.078125 0 Z M 3.078125 -25.984375 "/></g></g></g><g fill="#000000" fill-opacity="1"><g transform="translate(354.58248, 319.538061)"><g><path d="M 20.203125 -5.5625 L 8.125 -5.5625 L 5.828125 0 L -0.328125 0 L 11.25 -25.984375 L 17.1875 -25.984375 L 28.8125 0 L 22.5 0 Z M 18.296875 -10.140625 L 14.1875 -20.078125 L 10.0625 -10.140625 Z M 18.296875 -10.140625 "/></g></g></g><g fill="#000000" fill-opacity="1"><g transform="translate(382.454553, 319.538061)"><g><path d="M 14.625 0.453125 C 10.914062 0.453125 8.023438 -0.570312 5.953125 -2.625 C 3.890625 -4.6875 2.859375 -7.625 2.859375 -11.4375 L 2.859375 -25.984375 L 8.875 -25.984375 L 8.875 -11.65625 C 8.875 -7 10.804688 -4.671875 14.671875 -4.671875 C 16.546875 -4.671875 17.976562 -5.234375 18.96875 -6.359375 C 19.957031 -7.492188 20.453125 -9.257812 20.453125 -11.65625 L 20.453125 -25.984375 L 26.390625 -25.984375 L 26.390625 -11.4375 C 26.390625 -7.625 25.359375 -4.6875 23.296875 -2.625 C 21.234375 -0.570312 18.34375 0.453125 14.625 0.453125 Z M 14.625 0.453125 "/></g></g></g><g fill="#000000" fill-opacity="1"><g transform="translate(411.699882, 319.538061)"><g><path d="M 11.625 0.453125 C 9.5625 0.453125 7.570312 0.175781 5.65625 -0.375 C 3.738281 -0.9375 2.203125 -1.664062 1.046875 -2.5625 L 3.078125 -7.09375 C 4.191406 -6.269531 5.515625 -5.609375 7.046875 -5.109375 C 8.585938 -4.617188 10.125 -4.375 11.65625 -4.375 C 13.363281 -4.375 14.625 -4.628906 15.4375 -5.140625 C 16.257812 -5.648438 16.671875 -6.328125 16.671875 -7.171875 C 16.671875 -7.785156 16.425781 -8.296875 15.9375 -8.703125 C 15.457031 -9.109375 14.835938 -9.4375 14.078125 -9.6875 C 13.328125 -9.9375 12.3125 -10.207031 11.03125 -10.5 C 9.050781 -10.976562 7.425781 -11.453125 6.15625 -11.921875 C 4.894531 -12.390625 3.8125 -13.140625 2.90625 -14.171875 C 2.007812 -15.210938 1.5625 -16.601562 1.5625 -18.34375 C 1.5625 -19.851562 1.96875 -21.21875 2.78125 -22.4375 C 3.601562 -23.664062 4.835938 -24.640625 6.484375 -25.359375 C 8.128906 -26.078125 10.140625 -26.4375 12.515625 -26.4375 C 14.171875 -26.4375 15.789062 -26.238281 17.375 -25.84375 C 18.957031 -25.445312 20.34375 -24.875 21.53125 -24.125 L 19.671875 -19.5625 C 17.273438 -20.925781 14.875 -21.609375 12.46875 -21.609375 C 10.789062 -21.609375 9.546875 -21.332031 8.734375 -20.78125 C 7.929688 -20.238281 7.53125 -19.523438 7.53125 -18.640625 C 7.53125 -17.742188 7.992188 -17.078125 8.921875 -16.640625 C 9.859375 -16.210938 11.273438 -15.789062 13.171875 -15.375 C 15.160156 -14.90625 16.785156 -14.429688 18.046875 -13.953125 C 19.304688 -13.484375 20.382812 -12.738281 21.28125 -11.71875 C 22.1875 -10.707031 22.640625 -9.335938 22.640625 -7.609375 C 22.640625 -6.128906 22.222656 -4.773438 21.390625 -3.546875 C 20.566406 -2.316406 19.328125 -1.34375 17.671875 -0.625 C 16.015625 0.09375 14 0.453125 11.625 0.453125 Z M 11.625 0.453125 "/></g></g></g><g fill="#000000" fill-opacity="1"><g transform="translate(435.37821, 319.538061)"><g><path d="M 3.078125 -25.984375 L 9.09375 -25.984375 L 9.09375 0 L 3.078125 0 Z M 3.078125 -25.984375 "/></g></g></g><g fill="#000000" fill-opacity="1"><g transform="translate(447.551393, 319.538061)"><g><path d="M 22.15625 -13.515625 C 23.644531 -13.046875 24.8125 -12.257812 25.65625 -11.15625 C 26.5 -10.050781 26.921875 -8.695312 26.921875 -7.09375 C 26.921875 -4.8125 26.035156 -3.054688 24.265625 -1.828125 C 22.492188 -0.609375 19.910156 0 16.515625 0 L 3.078125 0 L 3.078125 -25.984375 L 15.78125 -25.984375 C 18.945312 -25.984375 21.375 -25.375 23.0625 -24.15625 C 24.757812 -22.945312 25.609375 -21.304688 25.609375 -19.234375 C 25.609375 -17.972656 25.304688 -16.847656 24.703125 -15.859375 C 24.097656 -14.867188 23.25 -14.085938 22.15625 -13.515625 Z M 9.0625 -21.453125 L 9.0625 -15.328125 L 15.03125 -15.328125 C 16.519531 -15.328125 17.644531 -15.585938 18.40625 -16.109375 C 19.175781 -16.628906 19.5625 -17.394531 19.5625 -18.40625 C 19.5625 -19.425781 19.175781 -20.1875 18.40625 -20.6875 C 17.644531 -21.195312 16.519531 -21.453125 15.03125 -21.453125 Z M 16.078125 -4.53125 C 17.660156 -4.53125 18.851562 -4.789062 19.65625 -5.3125 C 20.457031 -5.832031 20.859375 -6.632812 20.859375 -7.71875 C 20.859375 -9.875 19.265625 -10.953125 16.078125 -10.953125 L 9.0625 -10.953125 L 9.0625 -4.53125 Z M 16.078125 -4.53125 "/></g></g></g><g fill="#000000" fill-opacity="1"><g transform="translate(475.943119, 319.538061)"><g><path d="M 3.078125 -25.984375 L 9.09375 -25.984375 L 9.09375 -4.90625 L 22.125 -4.90625 L 22.125 0 L 3.078125 0 Z M 3.078125 -25.984375 "/></g></g></g><g fill="#000000" fill-opacity="1"><g transform="translate(498.359588, 319.538061)"><g><path d="M 23.203125 -4.828125 L 23.203125 0 L 3.078125 0 L 3.078125 -25.984375 L 22.71875 -25.984375 L 22.71875 -21.15625 L 9.0625 -21.15625 L 9.0625 -15.515625 L 21.125 -15.515625 L 21.125 -10.84375 L 9.0625 -10.84375 L 9.0625 -4.828125 Z M 23.203125 -4.828125 "/></g></g></g><g fill="#000000" fill-opacity="1"><g transform="translate(523.268595, 319.538061)"><g/></g></g><g fill="#71b8dd" fill-opacity="1"><g transform="translate(532.995157, 319.538061)"><g><path d="M 22.15625 -13.515625 C 23.644531 -13.046875 24.8125 -12.257812 25.65625 -11.15625 C 26.5 -10.050781 26.921875 -8.695312 26.921875 -7.09375 C 26.921875 -4.8125 26.035156 -3.054688 24.265625 -1.828125 C 22.492188 -0.609375 19.910156 0 16.515625 0 L 3.078125 0 L 3.078125 -25.984375 L 15.78125 -25.984375 C 18.945312 -25.984375 21.375 -25.375 23.0625 -24.15625 C 24.757812 -22.945312 25.609375 -21.304688 25.609375 -19.234375 C 25.609375 -17.972656 25.304688 -16.847656 24.703125 -15.859375 C 24.097656 -14.867188 23.25 -14.085938 22.15625 -13.515625 Z M 9.0625 -21.453125 L 9.0625 -15.328125 L 15.03125 -15.328125 C 16.519531 -15.328125 17.644531 -15.585938 18.40625 -16.109375 C 19.175781 -16.628906 19.5625 -17.394531 19.5625 -18.40625 C 19.5625 -19.425781 19.175781 -20.1875 18.40625 -20.6875 C 17.644531 -21.195312 16.519531 -21.453125 15.03125 -21.453125 Z M 16.078125 -4.53125 C 17.660156 -4.53125 18.851562 -4.789062 19.65625 -5.3125 C 20.457031 -5.832031 20.859375 -6.632812 20.859375 -7.71875 C 20.859375 -9.875 19.265625 -10.953125 16.078125 -10.953125 L 9.0625 -10.953125 L 9.0625 -4.53125 Z M 16.078125 -4.53125 "/></g></g></g><g fill="#71b8dd" fill-opacity="1"><g transform="translate(561.386883, 319.538061)"><g><path d="M 20.203125 -5.5625 L 8.125 -5.5625 L 5.828125 0 L -0.328125 0 L 11.25 -25.984375 L 17.1875 -25.984375 L 28.8125 0 L 22.5 0 Z M 18.296875 -10.140625 L 14.1875 -20.078125 L 10.0625 -10.140625 Z M 18.296875 -10.140625 "/></g></g></g><g fill="#000000" fill-opacity="1"><g transform="translate(305.147508, 342.03806)"><g><path d="M 5 -7.171875 C 5.675781 -7.171875 6.28125 -7.019531 6.8125 -6.71875 C 7.351562 -6.414062 7.773438 -5.988281 8.078125 -5.4375 C 8.390625 -4.882812 8.546875 -4.257812 8.546875 -3.5625 C 8.546875 -2.84375 8.390625 -2.207031 8.078125 -1.65625 C 7.773438 -1.113281 7.351562 -0.691406 6.8125 -0.390625 C 6.28125 -0.0859375 5.675781 0.0625 5 0.0625 C 4.425781 0.0625 3.90625 -0.0546875 3.4375 -0.296875 C 2.976562 -0.535156 2.597656 -0.882812 2.296875 -1.34375 L 2.296875 2.625 L 1.34375 2.625 L 1.34375 -7.125 L 2.265625 -7.125 L 2.265625 -5.703125 C 2.546875 -6.171875 2.921875 -6.53125 3.390625 -6.78125 C 3.867188 -7.039062 4.40625 -7.171875 5 -7.171875 Z M 4.9375 -0.78125 C 5.4375 -0.78125 5.890625 -0.894531 6.296875 -1.125 C 6.703125 -1.351562 7.019531 -1.679688 7.25 -2.109375 C 7.476562 -2.535156 7.59375 -3.019531 7.59375 -3.5625 C 7.59375 -4.101562 7.476562 -4.582031 7.25 -5 C 7.019531 -5.414062 6.703125 -5.738281 6.296875 -5.96875 C 5.890625 -6.207031 5.4375 -6.328125 4.9375 -6.328125 C 4.4375 -6.328125 3.984375 -6.207031 3.578125 -5.96875 C 3.179688 -5.738281 2.863281 -5.414062 2.625 -5 C 2.394531 -4.582031 2.28125 -4.101562 2.28125 -3.5625 C 2.28125 -3.019531 2.394531 -2.535156 2.625 -2.109375 C 2.863281 -1.679688 3.179688 -1.351562 3.578125 -1.125 C 3.984375 -0.894531 4.4375 -0.78125 4.9375 -0.78125 Z M 4.9375 -0.78125 "/></g></g></g><g fill="#000000" fill-opacity="1"><g transform="translate(314.316457, 342.03806)"><g><path d="M 1.34375 -10.046875 L 2.296875 -10.046875 L 2.296875 0 L 1.34375 0 Z M 1.34375 -10.046875 "/></g></g></g><g fill="#000000" fill-opacity="1"><g transform="translate(317.954281, 342.03806)"><g><path d="M 3.828125 -7.171875 C 4.753906 -7.171875 5.46875 -6.9375 5.96875 -6.46875 C 6.46875 -6.007812 6.71875 -5.320312 6.71875 -4.40625 L 6.71875 0 L 5.796875 0 L 5.796875 -1.109375 C 5.578125 -0.742188 5.253906 -0.457031 4.828125 -0.25 C 4.410156 -0.0390625 3.914062 0.0625 3.34375 0.0625 C 2.550781 0.0625 1.921875 -0.125 1.453125 -0.5 C 0.984375 -0.875 0.75 -1.375 0.75 -2 C 0.75 -2.601562 0.96875 -3.085938 1.40625 -3.453125 C 1.84375 -3.828125 2.535156 -4.015625 3.484375 -4.015625 L 5.75 -4.015625 L 5.75 -4.453125 C 5.75 -5.066406 5.578125 -5.53125 5.234375 -5.84375 C 4.890625 -6.164062 4.390625 -6.328125 3.734375 -6.328125 C 3.285156 -6.328125 2.851562 -6.253906 2.4375 -6.109375 C 2.019531 -5.960938 1.660156 -5.757812 1.359375 -5.5 L 0.9375 -6.203125 C 1.289062 -6.515625 1.71875 -6.753906 2.21875 -6.921875 C 2.726562 -7.085938 3.265625 -7.171875 3.828125 -7.171875 Z M 3.484375 -0.6875 C 4.023438 -0.6875 4.488281 -0.8125 4.875 -1.0625 C 5.269531 -1.3125 5.5625 -1.671875 5.75 -2.140625 L 5.75 -3.296875 L 3.515625 -3.296875 C 2.296875 -3.296875 1.6875 -2.875 1.6875 -2.03125 C 1.6875 -1.613281 1.84375 -1.285156 2.15625 -1.046875 C 2.476562 -0.804688 2.921875 -0.6875 3.484375 -0.6875 Z M 3.484375 -0.6875 "/></g></g></g><g fill="#000000" fill-opacity="1"><g transform="translate(325.933159, 342.03806)"><g><path d="M 7.75 -7.125 L 7.75 0 L 6.828125 0 L 6.828125 -1.296875 C 6.578125 -0.867188 6.226562 -0.535156 5.78125 -0.296875 C 5.34375 -0.0546875 4.84375 0.0625 4.28125 0.0625 C 3.34375 0.0625 2.601562 -0.191406 2.0625 -0.703125 C 1.53125 -1.222656 1.265625 -1.984375 1.265625 -2.984375 L 1.265625 -7.125 L 2.234375 -7.125 L 2.234375 -3.078125 C 2.234375 -2.335938 2.414062 -1.769531 2.78125 -1.375 C 3.15625 -0.988281 3.6875 -0.796875 4.375 -0.796875 C 5.125 -0.796875 5.710938 -1.023438 6.140625 -1.484375 C 6.578125 -1.941406 6.796875 -2.570312 6.796875 -3.375 L 6.796875 -7.125 Z M 7.75 -7.125 "/></g></g></g><g fill="#000000" fill-opacity="1"><g transform="translate(335.034484, 342.03806)"><g><path d="M 3.25 0.0625 C 2.664062 0.0625 2.109375 -0.0195312 1.578125 -0.1875 C 1.054688 -0.351562 0.648438 -0.5625 0.359375 -0.8125 L 0.78125 -1.5625 C 1.082031 -1.332031 1.457031 -1.140625 1.90625 -0.984375 C 2.351562 -0.835938 2.820312 -0.765625 3.3125 -0.765625 C 3.96875 -0.765625 4.445312 -0.863281 4.75 -1.0625 C 5.0625 -1.269531 5.21875 -1.5625 5.21875 -1.9375 C 5.21875 -2.195312 5.128906 -2.398438 4.953125 -2.546875 C 4.785156 -2.703125 4.570312 -2.816406 4.3125 -2.890625 C 4.050781 -2.960938 3.707031 -3.035156 3.28125 -3.109375 C 2.695312 -3.222656 2.226562 -3.332031 1.875 -3.4375 C 1.53125 -3.550781 1.234375 -3.742188 0.984375 -4.015625 C 0.734375 -4.285156 0.609375 -4.660156 0.609375 -5.140625 C 0.609375 -5.734375 0.851562 -6.21875 1.34375 -6.59375 C 1.84375 -6.976562 2.535156 -7.171875 3.421875 -7.171875 C 3.878906 -7.171875 4.335938 -7.109375 4.796875 -6.984375 C 5.265625 -6.867188 5.644531 -6.710938 5.9375 -6.515625 L 5.515625 -5.734375 C 4.929688 -6.140625 4.234375 -6.34375 3.421875 -6.34375 C 2.804688 -6.34375 2.34375 -6.234375 2.03125 -6.015625 C 1.71875 -5.804688 1.5625 -5.523438 1.5625 -5.171875 C 1.5625 -4.898438 1.648438 -4.679688 1.828125 -4.515625 C 2.003906 -4.359375 2.222656 -4.238281 2.484375 -4.15625 C 2.742188 -4.082031 3.109375 -4.003906 3.578125 -3.921875 C 4.140625 -3.816406 4.59375 -3.707031 4.9375 -3.59375 C 5.28125 -3.488281 5.570312 -3.304688 5.8125 -3.046875 C 6.0625 -2.785156 6.1875 -2.425781 6.1875 -1.96875 C 6.1875 -1.34375 5.925781 -0.847656 5.40625 -0.484375 C 4.882812 -0.117188 4.164062 0.0625 3.25 0.0625 Z M 3.25 0.0625 "/></g></g></g><g fill="#000000" fill-opacity="1"><g transform="translate(341.647487, 342.03806)"><g><path d="M 1.34375 -7.125 L 2.296875 -7.125 L 2.296875 0 L 1.34375 0 Z M 1.828125 -8.671875 C 1.628906 -8.671875 1.460938 -8.738281 1.328125 -8.875 C 1.191406 -9.007812 1.125 -9.171875 1.125 -9.359375 C 1.125 -9.546875 1.191406 -9.707031 1.328125 -9.84375 C 1.460938 -9.976562 1.628906 -10.046875 1.828125 -10.046875 C 2.023438 -10.046875 2.191406 -9.976562 2.328125 -9.84375 C 2.460938 -9.707031 2.53125 -9.550781 2.53125 -9.375 C 2.53125 -9.175781 2.460938 -9.007812 2.328125 -8.875 C 2.191406 -8.738281 2.023438 -8.671875 1.828125 -8.671875 Z M 1.828125 -8.671875 "/></g></g></g><g fill="#000000" fill-opacity="1"><g transform="translate(345.285312, 342.03806)"><g><path d="M 5 -7.171875 C 5.675781 -7.171875 6.28125 -7.019531 6.8125 -6.71875 C 7.351562 -6.414062 7.773438 -5.988281 8.078125 -5.4375 C 8.390625 -4.882812 8.546875 -4.257812 8.546875 -3.5625 C 8.546875 -2.851562 8.390625 -2.222656 8.078125 -1.671875 C 7.773438 -1.128906 7.351562 -0.703125 6.8125 -0.390625 C 6.28125 -0.0859375 5.675781 0.0625 5 0.0625 C 4.40625 0.0625 3.867188 -0.0625 3.390625 -0.3125 C 2.921875 -0.5625 2.546875 -0.925781 2.265625 -1.40625 L 2.265625 0 L 1.34375 0 L 1.34375 -10.046875 L 2.296875 -10.046875 L 2.296875 -5.765625 C 2.597656 -6.222656 2.976562 -6.570312 3.4375 -6.8125 C 3.90625 -7.050781 4.425781 -7.171875 5 -7.171875 Z M 4.9375 -0.78125 C 5.4375 -0.78125 5.890625 -0.894531 6.296875 -1.125 C 6.703125 -1.351562 7.019531 -1.679688 7.25 -2.109375 C 7.476562 -2.535156 7.59375 -3.019531 7.59375 -3.5625 C 7.59375 -4.101562 7.476562 -4.582031 7.25 -5 C 7.019531 -5.425781 6.703125 -5.753906 6.296875 -5.984375 C 5.890625 -6.210938 5.4375 -6.328125 4.9375 -6.328125 C 4.4375 -6.328125 3.984375 -6.210938 3.578125 -5.984375 C 3.179688 -5.753906 2.863281 -5.425781 2.625 -5 C 2.394531 -4.582031 2.28125 -4.101562 2.28125 -3.5625 C 2.28125 -3.019531 2.394531 -2.535156 2.625 -2.109375 C 2.863281 -1.679688 3.179688 -1.351562 3.578125 -1.125 C 3.984375 -0.894531 4.4375 -0.78125 4.9375 -0.78125 Z M 4.9375 -0.78125 "/></g></g></g><g fill="#000000" fill-opacity="1"><g transform="translate(354.45426, 342.03806)"><g><path d="M 1.34375 -10.046875 L 2.296875 -10.046875 L 2.296875 0 L 1.34375 0 Z M 1.34375 -10.046875 "/></g></g></g><g fill="#000000" fill-opacity="1"><g transform="translate(358.092085, 342.03806)"><g><path d="M 7.53125 -3.265625 L 1.578125 -3.265625 C 1.640625 -2.523438 1.925781 -1.925781 2.4375 -1.46875 C 2.945312 -1.007812 3.597656 -0.78125 4.390625 -0.78125 C 4.828125 -0.78125 5.226562 -0.859375 5.59375 -1.015625 C 5.96875 -1.179688 6.289062 -1.414062 6.5625 -1.71875 L 7.109375 -1.09375 C 6.785156 -0.71875 6.382812 -0.429688 5.90625 -0.234375 C 5.4375 -0.0351562 4.921875 0.0625 4.359375 0.0625 C 3.628906 0.0625 2.976562 -0.0859375 2.40625 -0.390625 C 1.84375 -0.703125 1.40625 -1.132812 1.09375 -1.6875 C 0.78125 -2.238281 0.625 -2.863281 0.625 -3.5625 C 0.625 -4.25 0.773438 -4.867188 1.078125 -5.421875 C 1.378906 -5.972656 1.789062 -6.398438 2.3125 -6.703125 C 2.84375 -7.015625 3.4375 -7.171875 4.09375 -7.171875 C 4.757812 -7.171875 5.351562 -7.015625 5.875 -6.703125 C 6.394531 -6.398438 6.800781 -5.972656 7.09375 -5.421875 C 7.394531 -4.878906 7.546875 -4.257812 7.546875 -3.5625 Z M 4.09375 -6.34375 C 3.414062 -6.34375 2.84375 -6.125 2.375 -5.6875 C 1.90625 -5.25 1.640625 -4.679688 1.578125 -3.984375 L 6.625 -3.984375 C 6.5625 -4.679688 6.296875 -5.25 5.828125 -5.6875 C 5.367188 -6.125 4.789062 -6.34375 4.09375 -6.34375 Z M 4.09375 -6.34375 "/></g></g></g><g fill="#000000" fill-opacity="1"><g transform="translate(366.260294, 342.03806)"><g><path d="M 7.515625 -4.890625 C 8.128906 -4.753906 8.601562 -4.484375 8.9375 -4.078125 C 9.28125 -3.679688 9.453125 -3.164062 9.453125 -2.53125 C 9.453125 -1.71875 9.148438 -1.09375 8.546875 -0.65625 C 7.953125 -0.21875 7.070312 0 5.90625 0 L 1.546875 0 L 1.546875 -9.46875 L 5.625 -9.46875 C 6.6875 -9.46875 7.503906 -9.253906 8.078125 -8.828125 C 8.660156 -8.410156 8.953125 -7.8125 8.953125 -7.03125 C 8.953125 -6.507812 8.820312 -6.066406 8.5625 -5.703125 C 8.3125 -5.335938 7.960938 -5.066406 7.515625 -4.890625 Z M 2.546875 -8.640625 L 2.546875 -5.203125 L 5.5625 -5.203125 C 6.332031 -5.203125 6.921875 -5.347656 7.328125 -5.640625 C 7.742188 -5.941406 7.953125 -6.367188 7.953125 -6.921875 C 7.953125 -7.484375 7.742188 -7.910156 7.328125 -8.203125 C 6.921875 -8.492188 6.332031 -8.640625 5.5625 -8.640625 Z M 5.890625 -0.828125 C 6.734375 -0.828125 7.367188 -0.96875 7.796875 -1.25 C 8.234375 -1.539062 8.453125 -1.992188 8.453125 -2.609375 C 8.453125 -3.796875 7.597656 -4.390625 5.890625 -4.390625 L 2.546875 -4.390625 L 2.546875 -0.828125 Z M 5.890625 -0.828125 "/></g></g></g><g fill="#000000" fill-opacity="1"><g transform="translate(376.457025, 342.03806)"><g><path d="M 7.484375 -2.53125 L 2.203125 -2.53125 L 1.0625 0 L 0.03125 0 L 4.359375 -9.46875 L 5.34375 -9.46875 L 9.671875 0 L 8.625 0 Z M 7.125 -3.34375 L 4.84375 -8.4375 L 2.578125 -3.34375 Z M 7.125 -3.34375 "/></g></g></g><g fill="#000000" fill-opacity="1"><g transform="translate(386.613404, 342.03806)"><g><path d="M 1.4375 0.0625 C 1.238281 0.0625 1.066406 -0.00390625 0.921875 -0.140625 C 0.785156 -0.285156 0.71875 -0.460938 0.71875 -0.671875 C 0.71875 -0.878906 0.785156 -1.050781 0.921875 -1.1875 C 1.066406 -1.332031 1.238281 -1.40625 1.4375 -1.40625 C 1.632812 -1.40625 1.804688 -1.332031 1.953125 -1.1875 C 2.097656 -1.050781 2.171875 -0.878906 2.171875 -0.671875 C 2.171875 -0.460938 2.097656 -0.285156 1.953125 -0.140625 C 1.804688 -0.00390625 1.632812 0.0625 1.4375 0.0625 Z M 1.4375 0.0625 "/></g></g></g><g fill="#000000" fill-opacity="1"><g transform="translate(389.27744, 342.03806)"><g><path d="M 4.296875 0.0625 C 3.585938 0.0625 2.953125 -0.0859375 2.390625 -0.390625 C 1.835938 -0.703125 1.40625 -1.132812 1.09375 -1.6875 C 0.78125 -2.238281 0.625 -2.863281 0.625 -3.5625 C 0.625 -4.25 0.78125 -4.867188 1.09375 -5.421875 C 1.40625 -5.972656 1.835938 -6.398438 2.390625 -6.703125 C 2.953125 -7.015625 3.585938 -7.171875 4.296875 -7.171875 C 4.898438 -7.171875 5.441406 -7.050781 5.921875 -6.8125 C 6.410156 -6.570312 6.796875 -6.222656 7.078125 -5.765625 L 6.359375 -5.28125 C 6.128906 -5.632812 5.832031 -5.894531 5.46875 -6.0625 C 5.101562 -6.238281 4.710938 -6.328125 4.296875 -6.328125 C 3.773438 -6.328125 3.304688 -6.210938 2.890625 -5.984375 C 2.484375 -5.753906 2.164062 -5.425781 1.9375 -5 C 1.707031 -4.582031 1.59375 -4.101562 1.59375 -3.5625 C 1.59375 -3.007812 1.707031 -2.519531 1.9375 -2.09375 C 2.164062 -1.675781 2.484375 -1.351562 2.890625 -1.125 C 3.304688 -0.894531 3.773438 -0.78125 4.296875 -0.78125 C 4.710938 -0.78125 5.101562 -0.863281 5.46875 -1.03125 C 5.832031 -1.207031 6.128906 -1.472656 6.359375 -1.828125 L 7.078125 -1.34375 C 6.796875 -0.882812 6.410156 -0.535156 5.921875 -0.296875 C 5.441406 -0.0546875 4.898438 0.0625 4.296875 0.0625 Z M 4.296875 0.0625 "/></g></g></g><g fill="#000000" fill-opacity="1"><g transform="translate(396.769417, 342.03806)"><g><path d="M 4.25 0.0625 C 3.5625 0.0625 2.941406 -0.0859375 2.390625 -0.390625 C 1.835938 -0.703125 1.40625 -1.132812 1.09375 -1.6875 C 0.78125 -2.238281 0.625 -2.863281 0.625 -3.5625 C 0.625 -4.25 0.78125 -4.867188 1.09375 -5.421875 C 1.40625 -5.972656 1.835938 -6.398438 2.390625 -6.703125 C 2.941406 -7.015625 3.5625 -7.171875 4.25 -7.171875 C 4.9375 -7.171875 5.550781 -7.015625 6.09375 -6.703125 C 6.644531 -6.398438 7.078125 -5.972656 7.390625 -5.421875 C 7.703125 -4.867188 7.859375 -4.25 7.859375 -3.5625 C 7.859375 -2.863281 7.703125 -2.238281 7.390625 -1.6875 C 7.078125 -1.132812 6.644531 -0.703125 6.09375 -0.390625 C 5.550781 -0.0859375 4.9375 0.0625 4.25 0.0625 Z M 4.25 -0.78125 C 4.75 -0.78125 5.195312 -0.894531 5.59375 -1.125 C 6 -1.351562 6.316406 -1.679688 6.546875 -2.109375 C 6.773438 -2.535156 6.890625 -3.019531 6.890625 -3.5625 C 6.890625 -4.101562 6.773438 -4.582031 6.546875 -5 C 6.316406 -5.425781 6 -5.753906 5.59375 -5.984375 C 5.195312 -6.210938 4.75 -6.328125 4.25 -6.328125 C 3.738281 -6.328125 3.28125 -6.210938 2.875 -5.984375 C 2.476562 -5.753906 2.164062 -5.425781 1.9375 -5 C 1.707031 -4.582031 1.59375 -4.101562 1.59375 -3.5625 C 1.59375 -3.019531 1.707031 -2.535156 1.9375 -2.109375 C 2.164062 -1.679688 2.476562 -1.351562 2.875 -1.125 C 3.28125 -0.894531 3.738281 -0.78125 4.25 -0.78125 Z M 4.25 -0.78125 "/></g></g></g><g fill="#000000" fill-opacity="1"><g transform="translate(405.248665, 342.03806)"><g><path d="M 10.21875 -7.171875 C 11.113281 -7.171875 11.8125 -6.910156 12.3125 -6.390625 C 12.820312 -5.878906 13.078125 -5.125 13.078125 -4.125 L 13.078125 0 L 12.125 0 L 12.125 -4.03125 C 12.125 -4.769531 11.945312 -5.332031 11.59375 -5.71875 C 11.238281 -6.113281 10.734375 -6.3125 10.078125 -6.3125 C 9.335938 -6.3125 8.753906 -6.082031 8.328125 -5.625 C 7.910156 -5.164062 7.703125 -4.535156 7.703125 -3.734375 L 7.703125 0 L 6.734375 0 L 6.734375 -4.03125 C 6.734375 -4.769531 6.554688 -5.332031 6.203125 -5.71875 C 5.847656 -6.113281 5.34375 -6.3125 4.6875 -6.3125 C 3.945312 -6.3125 3.363281 -6.082031 2.9375 -5.625 C 2.507812 -5.164062 2.296875 -4.535156 2.296875 -3.734375 L 2.296875 0 L 1.34375 0 L 1.34375 -7.125 L 2.265625 -7.125 L 2.265625 -5.8125 C 2.515625 -6.25 2.863281 -6.582031 3.3125 -6.8125 C 3.757812 -7.050781 4.28125 -7.171875 4.875 -7.171875 C 5.46875 -7.171875 5.984375 -7.039062 6.421875 -6.78125 C 6.859375 -6.53125 7.1875 -6.160156 7.40625 -5.671875 C 7.664062 -6.140625 8.039062 -6.503906 8.53125 -6.765625 C 9.019531 -7.035156 9.582031 -7.171875 10.21875 -7.171875 Z M 10.21875 -7.171875 "/></g></g></g></svg>